General
Complete name                  : C:\Users\joeyz\Code\Playground\stereoscopic\Dataset\videos\helicoptercrash.mp4
Format                         : MPEG-4
Format profile                 : Base Media / Version 2
Codec ID                       : mp42 (mp41/mp42/isom)
File size                      : 41.4 MiB
Duration                       : 1 min 0 s
Overall bit rate               : 5 794 kb/s
Frame rate                     : 24.000 FPS
Encoded date                   : 2017-04-10 22:55:53 UTC
Tagged date                    : 2017-04-10 22:55:54 UTC

Video
ID                             : 1
Format                         : AVC
Format/Info                    : Advanced Video Codec
Format profile                 : High@L5
Format settings                : CABAC / 3 Ref Frames
Format settings, CABAC         : Yes
Format settings, Reference fra : 3 frames
Codec ID                       : avc1
Codec ID/Info                  : Advanced Video Coding
Duration                       : 1 min 0 s
Source duration                : 1 min 1 s
Bit rate                       : 5 487 kb/s
Width                          : 2 560 pixels
Height                         : 1 440 pixels
Display aspect ratio           : 16:9
Frame rate mode                : Constant
Frame rate                     : 24.000 FPS
Color space                    : YUV
Chroma subsampling             : 4:2:0
Bit depth                      : 8 bits
Scan type                      : Progressive
Bits/(Pixel*Frame)             : 0.062
Stream size                    : 39.2 MiB (95%)
Source stream size             : 40.5 MiB (98%)
Title                          : Core Media Video
Encoded date                   : 2017-04-10 22:55:53 UTC
Tagged date                    : 2017-04-10 22:55:54 UTC
Color range                    : Limited
Color primaries                : BT.709
Transfer characteristics       : BT.709
Matrix coefficients            : BT.709
Codec configuration box        : avcC

Audio
ID                             : 2
Format                         : AAC LC
Format/Info                    : Advanced Audio Codec Low Complexity
Codec ID                       : mp4a-40-2
Duration                       : 1 min 0 s
Source duration                : 1 min 0 s
Bit rate mode                  : Constant
Bit rate                       : 126 kb/s
Channel(s)                     : 2 channels
Channel layout                 : L R
Sampling rate                  : 44.1 kHz
Frame rate                     : 43.066 FPS (1024 SPF)
Compression mode               : Lossy
Stream size                    : 920 KiB (2%)
Source stream size             : 922 KiB (2%)
Title                          : Core Media Audio
Default                        : Yes
Alternate group                : 1
Encoded date                   : 2017-04-10 22:55:53 UTC
Tagged date                    : 2017-04-10 22:55:54 UTC

